<svg width="1500" height="500" viewBox="0 0 1500 500" fill="none" xmlns="http://www.w3.org/2000/svg">
<rect width="1500" height="500" fill="url(#paint0_linear_2153_53)"/>
<rect width="1500" height="500" fill="url(#paint1_linear_2153_53)"/>
<rect x="512" y="233" width="250" height="250" fill="white"/>
<rect x="514" y="235" width="246" height="246" fill="#DF55C4"/>
<path d="M578.75 460H576.031L570.078 451.266H566.906V460H564.766V439.609H571.484C573.724 439.609 575.458 440.099 576.688 441.078C577.917 442.047 578.531 443.5 578.531 445.438C578.531 446.292 578.38 447.062 578.078 447.75C577.776 448.427 577.365 449.005 576.844 449.484C576.323 449.964 575.698 450.349 574.969 450.641C574.25 450.932 573.464 451.109 572.609 451.172L578.75 460ZM576.312 445.438C576.312 444.052 575.88 443.042 575.016 442.406C574.161 441.76 572.984 441.438 571.484 441.438H566.906V449.438H571.484C572.984 449.438 574.161 449.125 575.016 448.5C575.88 447.865 576.312 446.844 576.312 445.438ZM583.609 453.469C583.766 455.01 584.328 456.24 585.297 457.156C586.266 458.073 587.526 458.531 589.078 458.531C590.172 458.531 591.146 458.307 592 457.859C592.854 457.411 593.495 456.854 593.922 456.188L595.422 457.219C594.693 458.24 593.823 459.021 592.812 459.562C591.802 460.094 590.557 460.359 589.078 460.359C587.953 460.359 586.922 460.172 585.984 459.797C585.047 459.422 584.234 458.901 583.547 458.234C582.87 457.557 582.344 456.755 581.969 455.828C581.594 454.901 581.406 453.87 581.406 452.734C581.406 451.63 581.573 450.615 581.906 449.688C582.25 448.75 582.74 447.943 583.375 447.266C584.021 446.578 584.802 446.047 585.719 445.672C586.635 445.286 587.661 445.094 588.797 445.094C590.036 445.094 591.12 445.302 592.047 445.719C592.974 446.135 593.745 446.714 594.359 447.453C594.984 448.182 595.443 449.057 595.734 450.078C596.036 451.099 596.188 452.229 596.188 453.469H583.609ZM593.922 451.641C593.682 450.047 593.104 448.859 592.188 448.078C591.271 447.297 590.141 446.906 588.797 446.906C588.109 446.906 587.474 447.021 586.891 447.25C586.307 447.469 585.792 447.786 585.344 448.203C584.896 448.62 584.521 449.125 584.219 449.719C583.917 450.302 583.724 450.943 583.641 451.641H593.922ZM613.109 455.969C613.109 456.823 612.896 457.531 612.469 458.094C612.042 458.656 611.49 459.104 610.812 459.438C610.146 459.771 609.396 460.005 608.562 460.141C607.74 460.286 606.932 460.359 606.141 460.359C604.818 460.359 603.5 460.167 602.188 459.781C600.875 459.396 599.74 458.891 598.781 458.266L599.734 456.422C600.807 457.099 601.865 457.62 602.906 457.984C603.948 458.349 605.026 458.531 606.141 458.531C609.359 458.531 610.969 457.698 610.969 456.031C610.969 455.625 610.833 455.297 610.562 455.047C610.302 454.786 609.948 454.578 609.5 454.422C609.052 454.255 608.536 454.125 607.953 454.031C607.38 453.938 606.776 453.849 606.141 453.766C605.328 453.651 604.521 453.516 603.719 453.359C602.917 453.203 602.182 452.969 601.516 452.656C600.859 452.344 600.328 451.927 599.922 451.406C599.526 450.885 599.328 450.198 599.328 449.344C599.328 448.615 599.51 447.984 599.875 447.453C600.25 446.922 600.745 446.479 601.359 446.125C601.984 445.771 602.714 445.51 603.547 445.344C604.38 445.177 605.245 445.094 606.141 445.094C607.422 445.094 608.568 445.245 609.578 445.547C610.589 445.839 611.5 446.26 612.312 446.812L611.453 448.484C610.62 447.901 609.776 447.495 608.922 447.266C608.068 447.026 607.141 446.906 606.141 446.906C605.693 446.906 605.193 446.948 604.641 447.031C604.099 447.104 603.594 447.24 603.125 447.438C602.656 447.625 602.26 447.875 601.938 448.188C601.625 448.49 601.469 448.875 601.469 449.344C601.469 449.75 601.599 450.078 601.859 450.328C602.13 450.568 602.49 450.771 602.938 450.938C603.385 451.094 603.896 451.219 604.469 451.312C605.052 451.406 605.661 451.495 606.297 451.578C607.089 451.693 607.885 451.828 608.688 451.984C609.5 452.141 610.234 452.37 610.891 452.672C611.557 452.974 612.094 453.385 612.5 453.906C612.906 454.427 613.109 455.115 613.109 455.969ZM625.141 442.531H622.234V439.609H625.141V442.531ZM628.047 460H619.312V458.172H622.609V447.266H619.312V445.438H624.766V458.172H628.047V460ZM645.516 460H636.781V458.172H640.078V441.438H636.781V439.609H642.234V458.172H645.516V460ZM660.078 442.531H657.172V439.609H660.078V442.531ZM662.984 460H654.25V458.172H657.547V447.266H654.25V445.438H659.703V458.172H662.984V460ZM670.953 453.469C671.109 455.01 671.672 456.24 672.641 457.156C673.609 458.073 674.87 458.531 676.422 458.531C677.516 458.531 678.49 458.307 679.344 457.859C680.198 457.411 680.839 456.854 681.266 456.188L682.766 457.219C682.036 458.24 681.167 459.021 680.156 459.562C679.146 460.094 677.901 460.359 676.422 460.359C675.297 460.359 674.266 460.172 673.328 459.797C672.391 459.422 671.578 458.901 670.891 458.234C670.214 457.557 669.688 456.755 669.312 455.828C668.938 454.901 668.75 453.87 668.75 452.734C668.75 451.63 668.917 450.615 669.25 449.688C669.594 448.75 670.083 447.943 670.719 447.266C671.365 446.578 672.146 446.047 673.062 445.672C673.979 445.286 675.005 445.094 676.141 445.094C677.38 445.094 678.464 445.302 679.391 445.719C680.318 446.135 681.089 446.714 681.703 447.453C682.328 448.182 682.786 449.057 683.078 450.078C683.38 451.099 683.531 452.229 683.531 453.469H670.953ZM681.266 451.641C681.026 450.047 680.448 448.859 679.531 448.078C678.615 447.297 677.484 446.906 676.141 446.906C675.453 446.906 674.818 447.021 674.234 447.25C673.651 447.469 673.135 447.786 672.688 448.203C672.24 448.62 671.865 449.125 671.562 449.719C671.26 450.302 671.068 450.943 670.984 451.641H681.266ZM700.078 460H697.922V451.016C697.922 449.714 697.641 448.703 697.078 447.984C696.516 447.266 695.604 446.906 694.344 446.906C693.552 446.906 692.833 447.089 692.188 447.453C691.552 447.818 691.01 448.307 690.562 448.922C690.115 449.526 689.771 450.224 689.531 451.016C689.302 451.797 689.188 452.615 689.188 453.469V460H687.047V445.438H689.188V449.094C690.219 446.427 692.057 445.094 694.703 445.094C698.286 445.094 700.078 447.068 700.078 451.016V460ZM718.469 455.359C718.302 456.891 717.698 458.109 716.656 459.016C715.625 459.911 714.333 460.359 712.781 460.359C711.927 460.359 711.146 460.219 710.438 459.938C709.729 459.656 709.125 459.266 708.625 458.766C708.125 458.266 707.734 457.667 707.453 456.969C707.182 456.26 707.047 455.49 707.047 454.656V447.266H703.75V445.438H707.047V439.609H709.188V445.438H715.391V447.266H709.188V454.656C709.188 455.188 709.271 455.688 709.438 456.156C709.615 456.625 709.854 457.036 710.156 457.391C710.469 457.745 710.844 458.026 711.281 458.234C711.719 458.432 712.219 458.531 712.781 458.531C713.844 458.531 714.729 458.203 715.438 457.547C716.156 456.88 716.568 456.021 716.672 454.969L718.469 455.359Z" fill="white"/>
<path d="M548.918 248.164C546.952 249.896 545.305 251.536 543.977 253.086C542.661 254.622 541.555 256.224 540.656 257.891C539.771 259.557 539.003 261.367 538.352 263.32C537.714 265.26 537.128 267.487 536.594 270H532.473C532.98 267.63 533.592 265.469 534.309 263.516C535.038 261.549 535.897 259.701 536.887 257.969C537.889 256.224 539.081 254.564 540.461 252.988C541.854 251.4 543.488 249.792 545.363 248.164H535.285L534.367 252.441H530.754L532.434 244.512H549.68L548.918 248.164ZM567.805 262.832C567.505 264.173 567.017 265.319 566.34 266.27C565.663 267.207 564.836 267.988 563.859 268.613C562.883 269.238 561.796 269.701 560.598 270C559.4 270.299 558.156 270.449 556.867 270.449C555.565 270.449 554.387 270.299 553.332 270C552.277 269.701 551.398 269.238 550.695 268.613C549.992 267.988 549.504 267.207 549.23 266.27C548.944 265.319 548.944 264.173 549.23 262.832C549.374 262.142 549.641 261.445 550.031 260.742C550.435 260.039 550.943 259.388 551.555 258.789C552.167 258.177 552.85 257.676 553.605 257.285C554.374 256.882 555.181 256.628 556.027 256.523C555.337 256.445 554.751 256.217 554.27 255.84C553.788 255.462 553.404 255.013 553.117 254.492C552.844 253.971 552.668 253.411 552.59 252.812C552.512 252.214 552.525 251.634 552.629 251.074C552.876 249.928 553.319 248.919 553.957 248.047C554.595 247.161 555.363 246.426 556.262 245.84C557.173 245.254 558.163 244.818 559.23 244.531C560.298 244.232 561.379 244.082 562.473 244.082C563.566 244.082 564.595 244.232 565.559 244.531C566.522 244.818 567.323 245.254 567.961 245.84C568.599 246.426 569.048 247.161 569.309 248.047C569.582 248.919 569.595 249.928 569.348 251.074C569.243 251.634 569.016 252.214 568.664 252.812C568.326 253.411 567.909 253.971 567.414 254.492C566.919 255.013 566.346 255.462 565.695 255.84C565.044 256.217 564.348 256.445 563.605 256.523C564.4 256.628 565.096 256.882 565.695 257.285C566.294 257.676 566.763 258.177 567.102 258.789C567.453 259.388 567.688 260.039 567.805 260.742C567.935 261.445 567.935 262.142 567.805 262.832ZM565.285 251.328C565.52 250.208 565.324 249.329 564.699 248.691C564.074 248.04 563.078 247.715 561.711 247.715C560.357 247.715 559.23 248.04 558.332 248.691C557.447 249.329 556.88 250.208 556.633 251.328C556.398 252.396 556.568 253.236 557.141 253.848C557.714 254.46 558.729 254.766 560.188 254.766C561.659 254.766 562.811 254.46 563.645 253.848C564.491 253.236 565.038 252.396 565.285 251.328ZM563.801 262.598C563.957 261.829 563.944 261.178 563.762 260.645C563.592 260.111 563.306 259.681 562.902 259.355C562.512 259.017 562.017 258.776 561.418 258.633C560.819 258.477 560.161 258.398 559.445 258.398C558.716 258.398 558.026 258.477 557.375 258.633C556.724 258.776 556.118 259.017 555.559 259.355C554.999 259.681 554.523 260.111 554.133 260.645C553.742 261.178 553.469 261.829 553.312 262.598C553.156 263.314 553.163 263.939 553.332 264.473C553.514 265.007 553.801 265.449 554.191 265.801C554.595 266.152 555.096 266.406 555.695 266.562C556.294 266.719 556.952 266.797 557.668 266.797C558.397 266.797 559.087 266.719 559.738 266.562C560.389 266.406 560.995 266.152 561.555 265.801C562.115 265.449 562.583 265.007 562.961 264.473C563.352 263.939 563.632 263.314 563.801 262.598Z" fill="white"/>
<path d="M748.547 267H746.25L744.328 261.172H736.266L734.375 267H732.078L738.859 246.609H741.766L748.547 267ZM743.719 259.281L740.297 248.766L736.875 259.281H743.719Z" fill="white"/>
<path d="M636.969 417H621.676L588.189 367.869H570.348V417H558.307V302.303H596.1C608.697 302.303 618.453 305.057 625.367 310.564C632.281 316.014 635.738 324.188 635.738 335.086C635.738 339.891 634.889 344.227 633.189 348.094C631.49 351.902 629.176 355.154 626.246 357.85C623.316 360.545 619.801 362.713 615.699 364.354C611.656 365.994 607.232 366.99 602.428 367.342L636.969 417ZM623.258 335.086C623.258 327.293 620.826 321.609 615.963 318.035C611.158 314.402 604.537 312.586 596.1 312.586H570.348V357.586H596.1C604.537 357.586 611.158 355.828 615.963 352.312C620.826 348.738 623.258 342.996 623.258 335.086ZM664.303 380.262C665.182 388.934 668.346 395.848 673.795 401.004C679.244 406.16 686.334 408.738 695.064 408.738C701.217 408.738 706.695 407.479 711.5 404.959C716.305 402.439 719.908 399.305 722.311 395.555L730.748 401.355C726.646 407.098 721.754 411.492 716.07 414.539C710.387 417.527 703.385 419.021 695.064 419.021C688.736 419.021 682.936 417.967 677.662 415.857C672.389 413.748 667.818 410.818 663.951 407.068C660.143 403.26 657.184 398.748 655.074 393.533C652.965 388.318 651.91 382.518 651.91 376.131C651.91 369.92 652.848 364.207 654.723 358.992C656.656 353.719 659.41 349.178 662.984 345.369C666.617 341.502 671.012 338.514 676.168 336.404C681.324 334.236 687.096 333.152 693.482 333.152C700.455 333.152 706.549 334.324 711.764 336.668C716.979 339.012 721.314 342.264 724.771 346.424C728.287 350.525 730.865 355.447 732.506 361.189C734.205 366.932 735.055 373.289 735.055 380.262H664.303ZM722.311 369.979C720.963 361.014 717.711 354.334 712.555 349.939C707.398 345.545 701.041 343.348 693.482 343.348C689.615 343.348 686.041 343.992 682.76 345.281C679.479 346.512 676.578 348.299 674.059 350.643C671.539 352.986 669.43 355.828 667.73 359.168C666.031 362.449 664.947 366.053 664.479 369.979H722.311Z" fill="white"/>
<path d="M857.717 394.324C857.717 399.129 856.516 403.113 854.113 406.277C851.711 409.441 848.605 411.961 844.797 413.836C841.047 415.711 836.828 417.029 832.141 417.791C827.512 418.611 822.971 419.021 818.518 419.021C811.076 419.021 803.664 417.938 796.281 415.77C788.898 413.602 782.512 410.76 777.121 407.244L782.482 396.873C788.518 400.682 794.465 403.611 800.324 405.662C806.184 407.713 812.248 408.738 818.518 408.738C836.623 408.738 845.676 404.051 845.676 394.676C845.676 392.391 844.914 390.545 843.391 389.139C841.926 387.674 839.934 386.502 837.414 385.623C834.895 384.686 831.994 383.953 828.713 383.426C825.49 382.898 822.092 382.4 818.518 381.932C813.947 381.287 809.406 380.525 804.895 379.646C800.383 378.768 796.252 377.449 792.502 375.691C788.811 373.934 785.822 371.59 783.537 368.66C781.311 365.73 780.197 361.863 780.197 357.059C780.197 352.957 781.223 349.412 783.273 346.424C785.383 343.436 788.166 340.945 791.623 338.953C795.139 336.961 799.24 335.496 803.928 334.559C808.615 333.621 813.479 333.152 818.518 333.152C825.725 333.152 832.17 334.002 837.854 335.701C843.537 337.342 848.664 339.715 853.234 342.82L848.4 352.225C843.713 348.943 838.967 346.658 834.162 345.369C829.357 344.021 824.143 343.348 818.518 343.348C815.998 343.348 813.186 343.582 810.08 344.051C807.033 344.461 804.191 345.223 801.555 346.336C798.918 347.391 796.691 348.797 794.875 350.555C793.117 352.254 792.238 354.422 792.238 357.059C792.238 359.344 792.971 361.189 794.436 362.596C795.959 363.943 797.98 365.086 800.5 366.023C803.02 366.902 805.891 367.605 809.113 368.133C812.395 368.66 815.822 369.158 819.396 369.627C823.85 370.271 828.332 371.033 832.844 371.912C837.414 372.791 841.545 374.08 845.236 375.779C848.986 377.479 852.004 379.793 854.289 382.723C856.574 385.652 857.717 389.52 857.717 394.324ZM925.393 318.738H909.045V302.303H925.393V318.738ZM941.74 417H892.609V406.717H911.154V345.369H892.609V335.086H923.283V406.717H941.74V417ZM1040 417H990.871V406.717H1009.42V312.586H990.871V302.303H1021.54V406.717H1040V417ZM1121.92 318.738H1105.57V302.303H1121.92V318.738ZM1138.26 417H1089.13V406.717H1107.68V345.369H1089.13V335.086H1119.81V406.717H1138.26V417ZM1183.09 380.262C1183.97 388.934 1187.13 395.848 1192.58 401.004C1198.03 406.16 1205.12 408.738 1213.85 408.738C1220 408.738 1225.48 407.479 1230.29 404.959C1235.09 402.439 1238.69 399.305 1241.1 395.555L1249.53 401.355C1245.43 407.098 1240.54 411.492 1234.86 414.539C1229.17 417.527 1222.17 419.021 1213.85 419.021C1207.52 419.021 1201.72 417.967 1196.45 415.857C1191.17 413.748 1186.6 410.818 1182.74 407.068C1178.93 403.26 1175.97 398.748 1173.86 393.533C1171.75 388.318 1170.7 382.518 1170.7 376.131C1170.7 369.92 1171.63 364.207 1173.51 358.992C1175.44 353.719 1178.2 349.178 1181.77 345.369C1185.4 341.502 1189.8 338.514 1194.95 336.404C1200.11 334.236 1205.88 333.152 1212.27 333.152C1219.24 333.152 1225.33 334.324 1230.55 336.668C1235.76 339.012 1240.1 342.264 1243.56 346.424C1247.07 350.525 1249.65 355.447 1251.29 361.189C1252.99 366.932 1253.84 373.289 1253.84 380.262H1183.09ZM1241.1 369.979C1239.75 361.014 1236.5 354.334 1231.34 349.939C1226.18 345.545 1219.83 343.348 1212.27 343.348C1208.4 343.348 1204.83 343.992 1201.54 345.281C1198.26 346.512 1195.36 348.299 1192.84 350.643C1190.32 352.986 1188.21 355.828 1186.52 359.168C1184.82 362.449 1183.73 366.053 1183.26 369.979H1241.1ZM1346.92 417H1334.79V366.463C1334.79 359.139 1333.21 353.455 1330.04 349.412C1326.88 345.369 1321.75 343.348 1314.66 343.348C1310.21 343.348 1306.16 344.373 1302.53 346.424C1298.96 348.475 1295.91 351.229 1293.39 354.686C1290.87 358.084 1288.94 362.01 1287.59 366.463C1286.3 370.857 1285.66 375.457 1285.66 380.262V417H1273.62V335.086H1285.66V355.652C1291.46 340.652 1301.8 333.152 1316.68 333.152C1336.84 333.152 1346.92 344.256 1346.92 366.463V417ZM1450.36 390.896C1449.43 399.51 1446.03 406.365 1440.17 411.463C1434.37 416.502 1427.1 419.021 1418.37 419.021C1413.57 419.021 1409.17 418.23 1405.19 416.648C1401.2 415.066 1397.8 412.869 1394.99 410.057C1392.18 407.244 1389.98 403.875 1388.4 399.949C1386.88 395.965 1386.12 391.629 1386.12 386.941V345.369H1367.57V335.086H1386.12V302.303H1398.16V335.086H1433.05V345.369H1398.16V386.941C1398.16 389.93 1398.62 392.742 1399.56 395.379C1400.56 398.016 1401.91 400.33 1403.61 402.322C1405.36 404.314 1407.47 405.896 1409.93 407.068C1412.39 408.182 1415.21 408.738 1418.37 408.738C1424.35 408.738 1429.33 406.893 1433.31 403.201C1437.36 399.451 1439.67 394.617 1440.26 388.699L1450.36 390.896Z" fill="white"/>
<path d="M777.963 457.324C777.963 456.236 778.235 455.326 778.779 454.597C779.324 453.854 780.035 453.273 780.913 452.853C781.804 452.42 782.818 452.11 783.956 451.925C785.106 451.727 786.275 451.628 787.463 451.628C787.921 451.628 788.329 451.634 788.688 451.646C789.059 451.659 789.405 451.677 789.727 451.702C790.061 451.727 790.395 451.758 790.729 451.795C791.062 451.832 791.427 451.875 791.823 451.925V450.682C791.823 449.84 791.638 449.148 791.267 448.604C790.908 448.059 790.463 447.632 789.931 447.323C789.399 447.002 788.842 446.779 788.261 446.655C787.679 446.519 787.185 446.451 786.776 446.451C785.49 446.451 784.302 446.624 783.214 446.971C782.125 447.317 781.111 447.781 780.171 448.362L779.021 446.451C780.06 445.82 781.222 445.307 782.509 444.911C783.808 444.503 785.23 444.299 786.776 444.299C787.716 444.299 788.638 444.423 789.541 444.67C790.456 444.905 791.273 445.276 791.99 445.783C792.72 446.278 793.301 446.934 793.734 447.75C794.167 448.566 794.384 449.544 794.384 450.682V462H791.823V459.105C791.378 459.662 790.871 460.151 790.302 460.571C789.745 460.992 789.158 461.338 788.539 461.61C787.921 461.87 787.302 462.068 786.684 462.204C786.065 462.353 785.478 462.427 784.921 462.427C782.632 462.427 780.901 461.988 779.726 461.109C778.55 460.231 777.963 458.969 777.963 457.324ZM784.921 460.256C785.985 460.256 786.937 460.101 787.778 459.792C788.632 459.47 789.355 459.075 789.949 458.604C790.543 458.134 791.001 457.633 791.322 457.102C791.656 456.57 791.823 456.087 791.823 455.654V454.021C790.994 453.898 790.197 453.83 789.43 453.817C788.675 453.805 788.02 453.799 787.463 453.799C786.548 453.799 785.663 453.861 784.81 453.984C783.968 454.108 783.232 454.312 782.602 454.597C781.971 454.869 781.464 455.228 781.08 455.673C780.697 456.118 780.505 456.669 780.505 457.324C780.505 458.054 780.857 458.728 781.562 459.347C782.28 459.953 783.399 460.256 784.921 460.256ZM815.128 462H812.567V451.331C812.567 449.785 812.233 448.585 811.565 447.731C810.897 446.878 809.815 446.451 808.318 446.451C807.378 446.451 806.525 446.668 805.758 447.101C805.003 447.534 804.36 448.115 803.828 448.845C803.296 449.562 802.888 450.391 802.604 451.331C802.331 452.259 802.195 453.23 802.195 454.244V462H799.653V444.707H802.195V449.049C803.42 445.882 805.603 444.299 808.745 444.299C813 444.299 815.128 446.643 815.128 451.331V462ZM842.774 454.244C842.96 456.075 843.628 457.535 844.778 458.623C845.929 459.712 847.425 460.256 849.269 460.256C850.567 460.256 851.724 459.99 852.738 459.458C853.753 458.926 854.513 458.264 855.021 457.473L856.802 458.697C855.936 459.91 854.903 460.837 853.703 461.48C852.503 462.111 851.025 462.427 849.269 462.427C847.933 462.427 846.708 462.204 845.595 461.759C844.481 461.313 843.517 460.695 842.7 459.903C841.896 459.099 841.271 458.147 840.826 457.046C840.381 455.945 840.158 454.72 840.158 453.372C840.158 452.061 840.356 450.855 840.752 449.754C841.16 448.641 841.742 447.682 842.496 446.878C843.263 446.062 844.191 445.431 845.279 444.985C846.368 444.528 847.586 444.299 848.935 444.299C850.407 444.299 851.693 444.546 852.794 445.041C853.895 445.536 854.81 446.222 855.54 447.101C856.282 447.966 856.826 449.006 857.173 450.218C857.532 451.43 857.711 452.772 857.711 454.244H842.774ZM855.021 452.073C854.736 450.181 854.049 448.771 852.961 447.843C851.872 446.915 850.53 446.451 848.935 446.451C848.118 446.451 847.364 446.587 846.671 446.859C845.978 447.119 845.366 447.496 844.834 447.991C844.302 448.486 843.857 449.086 843.498 449.791C843.139 450.484 842.91 451.244 842.812 452.073H855.021ZM874.8 462H864.428V459.829H868.343V439.957H864.428V437.786H870.903V459.829H874.8V462ZM884.263 454.244C884.448 456.075 885.116 457.535 886.267 458.623C887.417 459.712 888.914 460.256 890.757 460.256C892.056 460.256 893.212 459.99 894.227 459.458C895.241 458.926 896.002 458.264 896.509 457.473L898.29 458.697C897.424 459.91 896.391 460.837 895.191 461.48C893.992 462.111 892.513 462.427 890.757 462.427C889.421 462.427 888.196 462.204 887.083 461.759C885.97 461.313 885.005 460.695 884.188 459.903C883.384 459.099 882.76 458.147 882.314 457.046C881.869 455.945 881.646 454.72 881.646 453.372C881.646 452.061 881.844 450.855 882.24 449.754C882.648 448.641 883.23 447.682 883.984 446.878C884.751 446.062 885.679 445.431 886.768 444.985C887.856 444.528 889.075 444.299 890.423 444.299C891.895 444.299 893.181 444.546 894.282 445.041C895.383 445.536 896.299 446.222 897.028 447.101C897.771 447.966 898.315 449.006 898.661 450.218C899.02 451.43 899.199 452.772 899.199 454.244H884.263ZM896.509 452.073C896.224 450.181 895.538 448.771 894.449 447.843C893.361 446.915 892.019 446.451 890.423 446.451C889.606 446.451 888.852 446.587 888.159 446.859C887.466 447.119 886.854 447.496 886.322 447.991C885.79 448.486 885.345 449.086 884.986 449.791C884.628 450.484 884.399 451.244 884.3 452.073H896.509ZM919.758 462H917.216V449.568C917.216 448.579 917.043 447.812 916.696 447.268C916.35 446.723 915.849 446.451 915.193 446.451C914.229 446.451 913.517 446.958 913.06 447.973C912.614 448.987 912.392 450.41 912.392 452.24V462H909.831V449.568C909.831 448.579 909.652 447.812 909.293 447.268C908.947 446.723 908.446 446.451 907.79 446.451C907.184 446.451 906.701 446.631 906.343 446.989C905.984 447.348 905.7 447.806 905.489 448.362C905.291 448.919 905.161 449.537 905.1 450.218C905.038 450.898 905.007 451.572 905.007 452.24V462H902.465V444.707H905.007V447.212C905.539 445.27 906.695 444.299 908.477 444.299C910.171 444.299 911.322 445.146 911.928 446.841C912.769 445.146 913.956 444.299 915.49 444.299C916.962 444.299 918.038 444.738 918.719 445.616C919.411 446.482 919.758 447.799 919.758 449.568V462ZM925.751 454.244C925.937 456.075 926.604 457.535 927.755 458.623C928.905 459.712 930.402 460.256 932.245 460.256C933.544 460.256 934.701 459.99 935.715 459.458C936.729 458.926 937.49 458.264 937.997 457.473L939.778 458.697C938.912 459.91 937.88 460.837 936.68 461.48C935.48 462.111 934.002 462.427 932.245 462.427C930.909 462.427 929.685 462.204 928.571 461.759C927.458 461.313 926.493 460.695 925.677 459.903C924.873 459.099 924.248 458.147 923.803 457.046C923.357 455.945 923.135 454.72 923.135 453.372C923.135 452.061 923.333 450.855 923.729 449.754C924.137 448.641 924.718 447.682 925.473 446.878C926.24 446.062 927.167 445.431 928.256 444.985C929.344 444.528 930.563 444.299 931.911 444.299C933.383 444.299 934.67 444.546 935.771 445.041C936.871 445.536 937.787 446.222 938.517 447.101C939.259 447.966 939.803 449.006 940.149 450.218C940.508 451.43 940.688 452.772 940.688 454.244H925.751ZM937.997 452.073C937.713 450.181 937.026 448.771 935.938 447.843C934.849 446.915 933.507 446.451 931.911 446.451C931.095 446.451 930.34 446.587 929.647 446.859C928.955 447.119 928.342 447.496 927.811 447.991C927.279 448.486 926.833 449.086 926.475 449.791C926.116 450.484 925.887 451.244 925.788 452.073H937.997ZM960.337 462H957.776V451.331C957.776 449.785 957.442 448.585 956.774 447.731C956.106 446.878 955.024 446.451 953.527 446.451C952.587 446.451 951.734 446.668 950.967 447.101C950.212 447.534 949.569 448.115 949.037 448.845C948.505 449.562 948.097 450.391 947.812 451.331C947.54 452.259 947.404 453.23 947.404 454.244V462H944.862V444.707H947.404V449.049C948.629 445.882 950.812 444.299 953.954 444.299C958.209 444.299 960.337 446.643 960.337 451.331V462ZM982.176 456.489C981.978 458.308 981.26 459.755 980.023 460.831C978.799 461.895 977.265 462.427 975.422 462.427C974.408 462.427 973.48 462.26 972.639 461.926C971.798 461.592 971.08 461.128 970.486 460.534C969.893 459.94 969.429 459.229 969.095 458.4C968.773 457.559 968.612 456.644 968.612 455.654V446.878H964.697V444.707H968.612V437.786H971.154V444.707H978.521V446.878H971.154V455.654C971.154 456.285 971.253 456.879 971.451 457.436C971.661 457.992 971.946 458.481 972.305 458.901C972.676 459.322 973.121 459.656 973.641 459.903C974.16 460.138 974.754 460.256 975.422 460.256C976.684 460.256 977.735 459.866 978.576 459.087C979.43 458.295 979.918 457.275 980.042 456.025L982.176 456.489ZM1023.92 453.409C1023.92 454.757 1023.71 455.982 1023.27 457.083C1022.85 458.184 1022.24 459.13 1021.44 459.922C1020.65 460.701 1019.69 461.313 1018.58 461.759C1017.47 462.204 1016.22 462.427 1014.85 462.427C1013.5 462.427 1012.27 462.204 1011.16 461.759C1010.04 461.313 1009.09 460.701 1008.28 459.922C1007.49 459.13 1006.88 458.184 1006.45 457.083C1006.02 455.982 1005.81 454.757 1005.81 453.409C1005.81 452.098 1006.02 450.88 1006.45 449.754C1006.88 448.616 1007.49 447.651 1008.28 446.859C1009.09 446.055 1010.04 445.431 1011.16 444.985C1012.27 444.528 1013.5 444.299 1014.85 444.299C1016.22 444.299 1017.47 444.528 1018.58 444.985C1019.69 445.431 1020.65 446.055 1021.44 446.859C1022.24 447.651 1022.85 448.616 1023.27 449.754C1023.71 450.88 1023.92 452.098 1023.92 453.409ZM1021.38 453.409C1021.38 452.42 1021.23 451.51 1020.94 450.682C1020.65 449.84 1020.23 449.104 1019.66 448.474C1019.09 447.843 1018.39 447.348 1017.58 446.989C1016.77 446.631 1015.86 446.451 1014.85 446.451C1013.84 446.451 1012.92 446.631 1012.1 446.989C1011.3 447.348 1010.62 447.843 1010.06 448.474C1009.51 449.104 1009.08 449.84 1008.78 450.682C1008.5 451.51 1008.36 452.42 1008.36 453.409C1008.36 454.399 1008.5 455.314 1008.78 456.155C1009.08 456.984 1009.51 457.701 1010.06 458.308C1010.62 458.914 1011.3 459.39 1012.1 459.736C1012.92 460.083 1013.84 460.256 1014.85 460.256C1015.86 460.256 1016.77 460.083 1017.58 459.736C1018.39 459.39 1019.09 458.914 1019.66 458.308C1020.23 457.701 1020.65 456.984 1020.94 456.155C1021.23 455.314 1021.38 454.399 1021.38 453.409ZM1044.22 446.878H1036.86V459.829H1040.75V462H1030.38V459.829H1034.3V446.878H1030.38V444.707H1034.3C1034.3 442.332 1034.91 440.52 1036.13 439.271C1037.37 438.009 1039.23 437.378 1041.72 437.378C1042.3 437.378 1042.79 437.396 1043.18 437.434C1043.59 437.471 1043.94 437.514 1044.22 437.563V439.734C1043.86 439.685 1043.49 439.642 1043.09 439.604C1042.71 439.567 1042.25 439.549 1041.72 439.549C1040.1 439.549 1038.88 439.963 1038.06 440.792C1037.26 441.608 1036.86 442.913 1036.86 444.707H1044.22V446.878ZM1085.71 453.372C1085.71 454.72 1085.5 455.945 1085.08 457.046C1084.66 458.147 1084.07 459.099 1083.3 459.903C1082.54 460.695 1081.63 461.313 1080.55 461.759C1079.48 462.204 1078.27 462.427 1076.93 462.427C1076.02 462.427 1075.13 462.26 1074.26 461.926C1073.41 461.592 1072.61 461.097 1071.87 460.441V468.921H1069.33V444.707H1071.87V446.303C1073.44 444.967 1075.13 444.299 1076.93 444.299C1078.27 444.299 1079.48 444.521 1080.55 444.967C1081.63 445.4 1082.54 446.024 1083.3 446.841C1084.07 447.645 1084.66 448.61 1085.08 449.735C1085.5 450.849 1085.71 452.061 1085.71 453.372ZM1083.17 453.372C1083.17 452.407 1083.03 451.504 1082.76 450.663C1082.5 449.81 1082.11 449.074 1081.57 448.455C1081.04 447.837 1080.39 447.348 1079.61 446.989C1078.84 446.631 1077.95 446.451 1076.93 446.451C1075.97 446.451 1075.07 446.631 1074.23 446.989C1073.4 447.348 1072.61 447.929 1071.87 448.733V458.011C1072.61 458.815 1073.4 459.39 1074.23 459.736C1075.07 460.083 1075.97 460.256 1076.93 460.256C1077.95 460.256 1078.84 460.076 1079.61 459.718C1080.39 459.359 1081.04 458.87 1081.57 458.252C1082.11 457.633 1082.5 456.91 1082.76 456.081C1083.03 455.24 1083.17 454.337 1083.17 453.372ZM1091.7 454.244C1091.89 456.075 1092.56 457.535 1093.71 458.623C1094.86 459.712 1096.36 460.256 1098.2 460.256C1099.5 460.256 1100.65 459.99 1101.67 459.458C1102.68 458.926 1103.44 458.264 1103.95 457.473L1105.73 458.697C1104.87 459.91 1103.83 460.837 1102.63 461.48C1101.43 462.111 1099.95 462.427 1098.2 462.427C1096.86 462.427 1095.64 462.204 1094.52 461.759C1093.41 461.313 1092.45 460.695 1091.63 459.903C1090.83 459.099 1090.2 458.147 1089.76 457.046C1089.31 455.945 1089.09 454.72 1089.09 453.372C1089.09 452.061 1089.29 450.855 1089.68 449.754C1090.09 448.641 1090.67 447.682 1091.43 446.878C1092.19 446.062 1093.12 445.431 1094.21 444.985C1095.3 444.528 1096.52 444.299 1097.86 444.299C1099.34 444.299 1100.62 444.546 1101.72 445.041C1102.82 445.536 1103.74 446.222 1104.47 447.101C1105.21 447.966 1105.76 449.006 1106.1 450.218C1106.46 451.43 1106.64 452.772 1106.64 454.244H1091.7ZM1103.95 452.073C1103.67 450.181 1102.98 448.771 1101.89 447.843C1100.8 446.915 1099.46 446.451 1097.86 446.451C1097.05 446.451 1096.29 446.587 1095.6 446.859C1094.91 447.119 1094.3 447.496 1093.76 447.991C1093.23 448.486 1092.79 449.086 1092.43 449.791C1092.07 450.484 1091.84 451.244 1091.74 452.073H1103.95ZM1109.87 457.324C1109.87 456.236 1110.14 455.326 1110.69 454.597C1111.23 453.854 1111.94 453.273 1112.82 452.853C1113.71 452.42 1114.72 452.11 1115.86 451.925C1117.01 451.727 1118.18 451.628 1119.37 451.628C1119.83 451.628 1120.24 451.634 1120.59 451.646C1120.96 451.659 1121.31 451.677 1121.63 451.702C1121.97 451.727 1122.3 451.758 1122.63 451.795C1122.97 451.832 1123.33 451.875 1123.73 451.925V450.682C1123.73 449.84 1123.54 449.148 1123.17 448.604C1122.81 448.059 1122.37 447.632 1121.84 447.323C1121.31 447.002 1120.75 446.779 1120.17 446.655C1119.59 446.519 1119.09 446.451 1118.68 446.451C1117.4 446.451 1116.21 446.624 1115.12 446.971C1114.03 447.317 1113.02 447.781 1112.08 448.362L1110.93 446.451C1111.97 445.82 1113.13 445.307 1114.42 444.911C1115.71 444.503 1117.14 444.299 1118.68 444.299C1119.62 444.299 1120.54 444.423 1121.45 444.67C1122.36 444.905 1123.18 445.276 1123.9 445.783C1124.63 446.278 1125.21 446.934 1125.64 447.75C1126.07 448.566 1126.29 449.544 1126.29 450.682V462H1123.73V459.105C1123.28 459.662 1122.78 460.151 1122.21 460.571C1121.65 460.992 1121.06 461.338 1120.45 461.61C1119.83 461.87 1119.21 462.068 1118.59 462.204C1117.97 462.353 1117.38 462.427 1116.83 462.427C1114.54 462.427 1112.81 461.988 1111.63 461.109C1110.46 460.231 1109.87 458.969 1109.87 457.324ZM1116.83 460.256C1117.89 460.256 1118.84 460.101 1119.68 459.792C1120.54 459.47 1121.26 459.075 1121.86 458.604C1122.45 458.134 1122.91 457.633 1123.23 457.102C1123.56 456.57 1123.73 456.087 1123.73 455.654V454.021C1122.9 453.898 1122.1 453.83 1121.34 453.817C1120.58 453.805 1119.93 453.799 1119.37 453.799C1118.45 453.799 1117.57 453.861 1116.72 453.984C1115.87 454.108 1115.14 454.312 1114.51 454.597C1113.88 454.869 1113.37 455.228 1112.99 455.673C1112.6 456.118 1112.41 456.669 1112.41 457.324C1112.41 458.054 1112.76 458.728 1113.47 459.347C1114.19 459.953 1115.31 460.256 1116.83 460.256ZM1147.29 458.697C1146.56 459.835 1145.56 460.744 1144.29 461.425C1143.03 462.093 1141.52 462.427 1139.78 462.427C1138.43 462.427 1137.19 462.204 1136.07 461.759C1134.94 461.313 1133.98 460.695 1133.17 459.903C1132.38 459.099 1131.76 458.147 1131.32 457.046C1130.87 455.945 1130.65 454.72 1130.65 453.372C1130.65 452.061 1130.85 450.849 1131.26 449.735C1131.67 448.61 1132.25 447.651 1133.01 446.859C1133.76 446.055 1134.68 445.431 1135.77 444.985C1136.87 444.528 1138.09 444.299 1139.43 444.299C1139.96 444.299 1140.5 444.361 1141.06 444.484C1141.62 444.608 1142.14 444.8 1142.64 445.06C1143.13 445.307 1143.58 445.61 1143.97 445.969C1144.37 446.315 1144.67 446.729 1144.86 447.212V444.707H1147.15V451.628H1144.86C1144.86 450.861 1144.72 450.162 1144.44 449.531C1144.16 448.9 1143.79 448.356 1143.3 447.898C1142.82 447.441 1142.25 447.088 1141.58 446.841C1140.91 446.581 1140.19 446.451 1139.43 446.451C1138.39 446.451 1137.48 446.631 1136.7 446.989C1135.93 447.348 1135.29 447.837 1134.77 448.455C1134.25 449.074 1133.85 449.803 1133.58 450.645C1133.32 451.473 1133.19 452.382 1133.19 453.372C1133.19 454.362 1133.34 455.277 1133.64 456.118C1133.95 456.947 1134.39 457.664 1134.96 458.271C1135.54 458.877 1136.23 459.359 1137.03 459.718C1137.85 460.076 1138.76 460.256 1139.78 460.256C1141.07 460.256 1142.21 460.002 1143.21 459.495C1144.21 458.988 1144.98 458.314 1145.51 457.473L1147.29 458.697ZM1153.94 454.244C1154.12 456.075 1154.79 457.535 1155.94 458.623C1157.09 459.712 1158.59 460.256 1160.43 460.256C1161.73 460.256 1162.89 459.99 1163.9 459.458C1164.91 458.926 1165.68 458.264 1166.18 457.473L1167.96 458.697C1167.1 459.91 1166.07 460.837 1164.87 461.48C1163.67 462.111 1162.19 462.427 1160.43 462.427C1159.09 462.427 1157.87 462.204 1156.76 461.759C1155.64 461.313 1154.68 460.695 1153.86 459.903C1153.06 459.099 1152.43 458.147 1151.99 457.046C1151.54 455.945 1151.32 454.72 1151.32 453.372C1151.32 452.061 1151.52 450.855 1151.91 449.754C1152.32 448.641 1152.9 447.682 1153.66 446.878C1154.43 446.062 1155.35 445.431 1156.44 444.985C1157.53 444.528 1158.75 444.299 1160.1 444.299C1161.57 444.299 1162.86 444.546 1163.96 445.041C1165.06 445.536 1165.97 446.222 1166.7 447.101C1167.44 447.966 1167.99 449.006 1168.33 450.218C1168.69 451.43 1168.87 452.772 1168.87 454.244H1153.94ZM1166.18 452.073C1165.9 450.181 1165.21 448.771 1164.12 447.843C1163.03 446.915 1161.69 446.451 1160.1 446.451C1159.28 446.451 1158.53 446.587 1157.83 446.859C1157.14 447.119 1156.53 447.496 1156 447.991C1155.46 448.486 1155.02 449.086 1154.66 449.791C1154.3 450.484 1154.07 451.244 1153.97 452.073H1166.18Z" fill="white"/>
<path d="M791.797 280H789.641V278.656C789.026 279.208 788.349 279.63 787.609 279.922C786.88 280.214 786.13 280.359 785.359 280.359C784.203 280.359 783.167 280.172 782.25 279.797C781.333 279.422 780.557 278.901 779.922 278.234C779.297 277.557 778.812 276.75 778.469 275.812C778.135 274.875 777.969 273.849 777.969 272.734C777.969 271.63 778.135 270.609 778.469 269.672C778.812 268.724 779.297 267.917 779.922 267.25C780.557 266.573 781.333 266.047 782.25 265.672C783.167 265.286 784.203 265.094 785.359 265.094C786.13 265.094 786.88 265.234 787.609 265.516C788.349 265.786 789.026 266.198 789.641 266.75V261.438H786.734V259.609H791.797V280ZM789.641 268.828C789.026 268.151 788.354 267.661 787.625 267.359C786.906 267.057 786.141 266.906 785.328 266.906C784.474 266.906 783.719 267.057 783.062 267.359C782.417 267.661 781.875 268.073 781.438 268.594C781 269.115 780.667 269.729 780.438 270.438C780.219 271.135 780.109 271.901 780.109 272.734C780.109 273.568 780.219 274.339 780.438 275.047C780.667 275.745 781 276.354 781.438 276.875C781.875 277.396 782.417 277.807 783.062 278.109C783.719 278.411 784.474 278.562 785.328 278.562C786.974 278.562 788.411 277.911 789.641 276.609V268.828ZM810.375 280H804.359V278.109H805.641L802.766 273.891L799.922 278.109H801.094V280H795.156V278.109H797.422L801.422 272.609L797.578 267.359H795.469V265.438H801.453V267.359H800.109L802.766 271.328L805.453 267.359H803.984V265.438H810.031V267.359H807.984L804.141 272.609L808.141 278.109H810.375V280ZM822.828 285.797C821.714 284.922 820.724 283.927 819.859 282.812C818.995 281.708 818.271 280.526 817.688 279.266C817.104 278.005 816.656 276.688 816.344 275.312C816.031 273.938 815.875 272.547 815.875 271.141C815.875 269.734 816.031 268.349 816.344 266.984C816.656 265.609 817.104 264.297 817.688 263.047C818.271 261.786 818.995 260.604 819.859 259.5C820.724 258.385 821.714 257.391 822.828 256.516L823.953 257.922C822.964 258.714 822.078 259.609 821.297 260.609C820.526 261.609 819.87 262.682 819.328 263.828C818.797 264.964 818.391 266.151 818.109 267.391C817.839 268.63 817.703 269.88 817.703 271.141C817.703 272.422 817.839 273.682 818.109 274.922C818.391 276.151 818.797 277.333 819.328 278.469C819.87 279.594 820.521 280.661 821.281 281.672C822.052 282.693 822.943 283.599 823.953 284.391L822.828 285.797ZM842.047 280H833.312V278.172H836.609V261.438H833.312V259.609H838.766V278.172H842.047V280ZM856.609 262.531H853.703V259.609H856.609V262.531ZM859.516 280H850.781V278.172H854.078V267.266H850.781V265.438H856.234V278.172H859.516V280ZM880.062 275.359C879.896 276.891 879.292 278.109 878.25 279.016C877.219 279.911 875.927 280.359 874.375 280.359C873.521 280.359 872.74 280.219 872.031 279.938C871.323 279.656 870.719 279.266 870.219 278.766C869.719 278.266 869.328 277.667 869.047 276.969C868.776 276.26 868.641 275.49 868.641 274.656V267.266H865.344V265.438H868.641V259.609H870.781V265.438H876.984V267.266H870.781V274.656C870.781 275.188 870.865 275.688 871.031 276.156C871.208 276.625 871.448 277.036 871.75 277.391C872.062 277.745 872.438 278.026 872.875 278.234C873.312 278.432 873.812 278.531 874.375 278.531C875.438 278.531 876.323 278.203 877.031 277.547C877.75 276.88 878.161 276.021 878.266 274.969L880.062 275.359ZM896.609 280H894.453V271.016C894.453 269.714 894.172 268.703 893.609 267.984C893.047 267.266 892.135 266.906 890.875 266.906C890.083 266.906 889.365 267.089 888.719 267.453C888.083 267.818 887.542 268.307 887.094 268.922C886.646 269.526 886.302 270.224 886.062 271.016C885.833 271.797 885.719 272.615 885.719 273.469V280H883.578V259.609H885.719V269.094C886.75 266.427 888.589 265.094 891.234 265.094C894.818 265.094 896.609 267.068 896.609 271.016V280ZM909.016 262.531H906.109V259.609H909.016V262.531ZM911.922 280H903.188V278.172H906.484V267.266H903.188V265.438H908.641V278.172H911.922V280ZM918.516 265.438H920.656V274.438C920.656 275.74 920.938 276.75 921.5 277.469C922.073 278.177 922.99 278.531 924.25 278.531C925.042 278.531 925.755 278.349 926.391 277.984C927.026 277.62 927.568 277.135 928.016 276.531C928.464 275.917 928.802 275.219 929.031 274.438C929.271 273.646 929.391 272.823 929.391 271.969V265.438H931.547V280H929.391V276.359C928.37 279.026 926.536 280.359 923.891 280.359C920.307 280.359 918.516 278.385 918.516 274.438V265.438ZM949.781 280H947.641V269.531C947.641 268.698 947.495 268.052 947.203 267.594C946.911 267.135 946.49 266.906 945.938 266.906C945.125 266.906 944.526 267.333 944.141 268.188C943.766 269.042 943.578 270.24 943.578 271.781V280H941.422V269.531C941.422 268.698 941.271 268.052 940.969 267.594C940.677 267.135 940.255 266.906 939.703 266.906C939.193 266.906 938.786 267.057 938.484 267.359C938.182 267.661 937.943 268.047 937.766 268.516C937.599 268.984 937.49 269.505 937.438 270.078C937.385 270.651 937.359 271.219 937.359 271.781V280H935.219V265.438H937.359V267.547C937.807 265.911 938.781 265.094 940.281 265.094C941.708 265.094 942.677 265.807 943.188 267.234C943.896 265.807 944.896 265.094 946.188 265.094C947.427 265.094 948.333 265.464 948.906 266.203C949.49 266.932 949.781 268.042 949.781 269.531V280ZM964.375 271.172C964.375 272.578 964.219 273.964 963.906 275.328C963.594 276.693 963.135 278.005 962.531 279.266C961.938 280.526 961.208 281.708 960.344 282.812C959.49 283.927 958.505 284.922 957.391 285.797L956.266 284.391C957.255 283.599 958.135 282.698 958.906 281.688C959.688 280.688 960.349 279.62 960.891 278.484C961.443 277.339 961.854 276.151 962.125 274.922C962.406 273.682 962.547 272.432 962.547 271.172C962.547 269.911 962.406 268.656 962.125 267.406C961.854 266.156 961.443 264.964 960.891 263.828C960.349 262.682 959.688 261.609 958.906 260.609C958.135 259.609 957.255 258.714 956.266 257.922L957.391 256.516C958.505 257.391 959.49 258.385 960.344 259.5C961.208 260.604 961.938 261.786 962.531 263.047C963.135 264.297 963.594 265.615 963.906 267C964.219 268.375 964.375 269.766 964.375 271.172Z" fill="white"/>
<defs>
<linearGradient id="paint0_linear_2153_53" x1="750" y1="0" x2="750" y2="500" gradientUnits="userSpaceOnUse">
<stop stop-color="#E0EEFF"/>
<stop offset="1" stop-color="#DF46BE"/>
</linearGradient>
<linearGradient id="paint1_linear_2153_53" x1="750" y1="0" x2="750" y2="500" gradientUnits="userSpaceOnUse">
<stop stop-color="#E0EEFF"/>
<stop offset="1" stop-color="#DF46BE"/>
</linearGradient>
</defs>
</svg>
